<?xml version="1.0" encoding="UTF-8"?>
<svg version="1.1" xmlns="http://www.w3.org/2000/svg" width="1600" height="1600">
  <defs>
    <linearGradient id="whiteToRedGradient" x1="0%" y1="0%" x2="100%" y2="100%">
      <stop offset="0%" style="stop-color:#ffffff;stop-opacity:1" />
      <stop offset="68%" style="stop-color:#ff6b6b;stop-opacity:1" />
      <stop offset="100%" style="stop-color:#8b0000;stop-opacity:1" />
    </linearGradient>
  </defs>
  <path d="M0 0 C3.34939364 1.45998113 5.57619049 3.31094433 8.17024231 5.86917114 C9.40491745 7.08021263 9.40491745 7.08021263 10.66453552 8.3157196 C11.5587471 9.20298233 12.45295868 10.09024506 13.37426758 11.00439453 C14.33177424 11.94772653 15.28964907 12.89068495 16.24786377 13.83329773 C19.38743945 16.92573697 22.51633959 20.02886488 25.64453125 23.1328125 C26.72301319 24.20188406 27.80153699 25.27091338 28.88010216 26.33990097 C33.36490759 30.78623595 37.84708168 35.23519294 42.32202625 39.69145393 C48.73196836 46.07456583 55.15681202 52.44176705 61.6038025 58.78746521 C66.13850956 63.25334246 70.65585045 67.73631735 75.16057318 72.23243606 C77.85084032 74.91669767 80.54808308 77.59294427 83.26398659 80.25128555 C85.81770179 82.75168125 88.34921332 85.27258654 90.86534119 87.81078529 C92.23290453 89.17940694 93.62274044 90.52565937 95.0131073 91.87110901 C100.7439761 97.71009193 100.7439761 97.71009193 101.40927696 101.0620327 C101.20802365 103.20701327 100.71485338 104.96919979 100 107 C99.80109067 107.70351027 99.60218134 108.40702053 99.39724445 109.13184929 C98.7106887 111.49207649 97.93985149 113.81109302 97.1484375 116.13818359 C96.71171722 117.45184906 96.71171722 117.45184906 96.26617432 118.79205322 C95.30962612 121.66330243 94.34247006 124.53085193 93.375 127.3984375 C92.70560463 129.39982972 92.03683133 131.40143011 91.36865234 133.40322876 C89.97097433 137.58561091 88.56851649 141.76634599 87.16210938 145.94580078 C85.35680661 151.31066567 83.55932598 156.67810715 81.76486206 162.04660606 C80.05392014 167.1646693 78.33984081 172.28167948 76.625 177.3984375 C76.29699402 178.37754467 75.96898804 179.35665184 75.63104248 180.36542892 C74.70624723 183.12358796 73.77930471 185.88101462 72.8515625 188.63818359 C72.57620667 189.45999115 72.30085083 190.28179871 72.01715088 191.12850952 C70.11513985 196.7697203 70.11513985 196.7697203 69 199 C69.95922363 198.67016113 70.91844727 198.34032227 71.90673828 198.00048828 C84.59549633 193.64053179 97.29473883 189.31161639 110 185 C111.16406372 184.60490234 112.32812744 184.20980469 113.52746582 183.80273438 C120.88591414 181.3069876 128.24784868 178.82187184 135.6137085 176.3480835 C138.03635035 175.53321668 140.4581073 174.71571421 142.87896729 173.89556885 C146.29714016 172.73825968 149.71841696 171.59062526 153.140625 170.4453125 C154.16600372 170.09597656 155.19138245 169.74664062 156.24783325 169.38671875 C157.67251419 168.91322998 157.67251419 168.91322998 159.12597656 168.43017578 C159.95051331 168.15263458 160.77505005 167.87509338 161.62457275 167.58914185 C164.42698902 166.89410027 166.12857813 166.48497521 169 167 C171.41516319 168.94775931 173.47825564 170.84618541 175.6262207 173.05859375 C176.27068649 173.70232941 176.91515228 174.34606506 177.57914734 175.00930786 C179.70675708 177.14040149 181.81611052 179.28865837 183.92578125 181.4375 C185.39727886 182.91832277 186.86988416 184.39804558 188.34355164 185.87670898 C192.2196552 189.7719052 196.08051048 193.68188262 199.93841553 197.59509277 C203.87760501 201.58542478 207.83098296 205.56164379 211.78320312 209.5390625 C219.53611422 217.34560144 227.27299508 225.16782391 235 233 C230.9622985 237.85874368 226.72120429 242.3946025 222.20425415 246.80833435 C221.54575922 247.45639465 220.8872643 248.10445495 220.20881498 248.77215344 C218.77529885 250.1823688 217.34054869 251.59133062 215.90470123 252.99917221 C212.74636273 256.09602883 209.59414052 259.19908422 206.44142413 262.30166256 C204.7451294 263.97085783 203.04852079 265.63973416 201.35161901 267.3083123 C190.4645611 278.01548746 179.61822929 288.76383556 168.76986241 299.51018608 C165.90969583 302.3434352 163.04906853 305.17621844 160.18798828 308.00854492 C159.47533025 308.71405925 159.47533025 308.71405925 158.74827509 309.43382639 C151.04838624 317.05492088 143.32212187 324.64874971 135.58632167 332.2333691 C127.62833604 340.0371342 119.70175633 347.87200865 111.80125082 355.7340036 C107.37054473 360.14103352 102.92677988 364.53276405 98.44795609 368.89092827 C94.23505814 372.99102343 90.06144963 377.12737656 85.91447067 381.29409981 C84.39007042 382.81252137 82.85198852 384.3173545 81.29931641 385.80685425 C71.6989832 394.58670099 71.6989832 394.58670099 68.00386178 406.53280836 C68.10324931 409.73036293 68.51364184 412.84041259 69 416 C69.11805804 418.03804586 69.22092094 420.07713858 69.296875 422.1171875 C69.43805306 424.03720908 69.58926569 425.95651659 69.75 427.875 C69.83797852 428.92816406 69.92595703 429.98132813 70.01660156 431.06640625 C75.83616178 495.98427267 99.07308707 555.31844424 144 603 C144.72832031 603.78246094 145.45664062 604.56492187 146.20703125 605.37109375 C152.56239105 611.98585599 159.68388262 617.50359769 167 623 C167.57411621 623.43489746 168.14823242 623.86979492 168.73974609 624.31787109 C204.96735038 651.60498691 248.9455263 665.50098449 294.125 665.3125 C295.03074768 665.31067719 295.93649536 665.30885437 296.86968994 665.30697632 C310.10468543 665.26210846 323.03877599 664.92873812 336 662 C336.804375 661.82307617 337.60875 661.64615234 338.4375 661.46386719 C349.3890609 658.98693213 359.74934913 655.58344081 370 651 C371.17046875 650.47664062 372.3409375 649.95328125 373.546875 649.4140625 C386.55117986 643.25869153 397.61752542 634.92630259 408 625 C408.66128906 624.401875 409.32257813 623.80375 410.00390625 623.1875 C447.17580425 588.34353904 458.26649938 528.92439214 459.87109375 480.34375 C459.91649794 478.56256042 459.95931513 476.78130363 460 475 C460.04084717 473.49566406 460.04084717 473.49566406 460.08251953 471.9609375 C462.25039876 381.42811931 439.56646098 289.156546 375.02880859 130 C374.30806444 128.59887609 373.592691 127.19498248 372.88134766 125.7890625 C362.18111769 104.64665385 349.61003086 84.87324602 334 67 C338.96032509 68.66322537 343.01131079 71.47262753 347.3125 74.375 C348.10358154 74.90593262 348.89466309 75.43686523 349.7097168 75.98388672 C357.04240008 80.94941798 364.13842121 86.19808579 371.16113281 91.59033203 C372.91114636 92.93188517 374.66895542 94.26240487 376.4296875 95.58984375 C383.09566805 100.63605333 389.52113556 105.90485681 395.87109375 111.33984375 C398.77051583 113.81779148 401.72181411 116.22659018 404.6875 118.625 C413.81463563 126.06631548 422.36968009 134.15923722 431.00219727 142.16186523 C432.54052804 143.57724986 434.08683011 144.98397425 435.63647461 146.38696289 C442.67684374 152.76933705 449.49599622 159.33905898 456.2019043 166.0715332 C457.82552229 167.70056572 459.45449603 169.32410728 461.08398438 170.94726562 C466.05389192 175.9140137 470.93691028 180.91299943 475.50366211 186.25854492 C477.87729713 189.02100839 480.38376951 191.65652888 482.875 194.3125 C487.35545146 199.12889801 491.60958253 204.06852978 495.73046875 209.19921875 C497.77874286 211.72695117 499.86722162 214.2094757 501.98120117 216.68188477 C508.20179366 223.95940048 514.17307551 231.40415478 520 239 C520.8350708 240.08812988 520.8350708 240.08812988 521.68701172 241.19824219 C578.16964342 315.07088491 620.66040972 398.4109153 667 621 C667.06305328 622.03510712 667.06305328 622.03510712 667.12738037 623.09112549 C667.97498752 637.226927 668.24223646 651.34021509 668.25 665.5 C668.25101212 667.18393356 668.25101212 667.18393356 668.25204468 668.90188599 C668.17138635 754.4562483 651.70638102 839.31162968 575 1007 C574.43812988 1007.91587891 573.87625977 1008.83175781 573.29736328 1009.77539062 C565.53049901 1022.41978845 557.61035645 1034.91209743 549 1047 C548.48195801 1047.72912598 547.96391602 1048.45825195 547.43017578 1049.20947266 C530.21816473 1073.37985683 511.76847417 1096.62968985 491.53515625 1118.3515625 C490.45012971 1119.51665461 489.36697635 1120.68349251 488.28515625 1121.8515625 C465.81373099 1146.11103665 465.81373099 1146.11103665 454.7109375 1155.50390625 C452.9414749 1157.05117606 451.32025552 1158.68475308 449.6875 1160.375 C445.98835622 1164.14140094 441.9221279 1167.38192973 437.8125 1170.6875 C435.19034106 1172.84349735 432.68391432 1175.07567103 430.1875 1177.375 C424.61484483 1182.4450581 418.71627284 1187.04719891 412.75390625 1191.64453125 C411.10071649 1192.92216343 409.45552864 1194.20934159 407.8125 1195.5 C399.78181501 1201.76393429 391.5202563 1207.66614648 383.16455078 1213.48779297 C381.65951528 1214.53924682 380.1581435 1215.59595642 378.65966797 1216.65673828 C306.73826884 1267.45417021 223.10605693 1302.6483641 97.84912109 1327.41113281 C95.53325604 1327.76543108 93.2181845 1328.12506088 90.90478516 1328.49511719 C5.86017282 1342.03773751 -83.70346733 1334.31492168 -339 1241 C-339.91587891 1240.43812988 -340.83175781 1239.87625977 -341.77539062 1239.29736328 C-354.41978845 1231.53049901 -366.91209743 1223.61035645 -379 1215 C-379.72912598 1214.48195801 -380.45825195 1213.96391602 -381.20947266 1213.43017578 C-405.37985683 1196.21816473 -428.62968985 1177.76847417 -450.3515625 1157.53515625 C-451.51665461 1156.45012971 -452.68349251 1155.36697635 -453.8515625 1154.28515625 C-478.11103665 1131.81373099 -478.11103665 1131.81373099 -487.50390625 1120.7109375 C-489.05117606 1118.9414749 -490.68475308 1117.32025552 -492.375 1115.6875 C-496.14140094 1111.98835622 -499.38192973 1107.9221279 -502.6875 1103.8125 C-504.84349735 1101.19034106 -507.07567103 1098.68391432 -509.375 1096.1875 C-514.4450581 1090.61484483 -519.04719891 1084.71627284 -523.64453125 1078.75390625 C-524.92216343 1077.10071649 -526.20934159 1075.45552864 -527.5 1073.8125 C-533.76393429 1065.78181501 -539.66614648 1057.5202563 -545.48779297 1049.16455078 C-546.53924682 1047.65951528 -547.59595642 1046.1581435 -548.65673828 1044.65966797 C-599.45417021 972.73826884 -634.6483641 889.10605693 -659.41113281 763.84912109 C-659.76543108 761.53325604 -660.12506088 759.2181845 -660.49511719 756.90478516 C-668.25508568 708.17392684 -668.27737053 657.06434441 -664 608 C-663.89816406 606.79585449 -663.79632812 605.59170898 -663.69140625 604.35107422 C-655.98095736 515.74040618 -629.88917722 431.08967194 -501.48974609 218.79394531 C-499.4214852 216.30335517 -497.40134024 213.7747399 -495.375 211.25 C-491.05723331 205.95751359 -486.43177081 200.97882062 -481.7734375 195.98828125 C-479.63645686 193.6964159 -477.54776652 191.37241243 -475.5 189 C-466.47713264 178.64276493 -456.94781007 168.84410576 -447.25 159.125 C-446.70684143 158.57925323 -446.16368286 158.03350647 -445.60406494 157.47122192 C-440.14691518 151.99360451 -434.67967511 146.57878281 -428.79736328 141.55224609 C-425.70918638 138.88522235 -422.77460588 136.05521807 -419.8125 133.25 C-413.07140701 126.91523103 -406.13136787 120.88912959 -399 115 C-398.13503906 114.278125 -397.27007812 113.55625 -396.37890625 112.8125 C-378.77128825 98.2332851 -360.54753389 84.12204007 -341.4375 71.5625 C-340.7168335 71.08337158 -339.99616699 70.60424316 -339.25366211 70.1105957 C-337.54313239 69.00789377 -335.77601451 67.99379873 -334 67 C-333.34 67.33 -332.68 67.66 -332 68 C-332.53367187 68.55945313 -333.06734375 69.11890625 -333.6171875 69.6953125 C-387.34057996 127.50837498 -413.14594667 221.72959484 -456 475 C-455.98114746 476.21526367 -455.98114746 476.21526367 -455.96191406 477.45507812 C-455.05780861 523.47220047 -445.65405985 572.27326934 -418 610 C-417.34515625 610.8971875 -416.6903125 611.794375 -416.015625 612.71875 C-398.86549336 635.11313676 -375.76349185 649.75409155 -349 658 C-347.79085938 658.37898437 -346.58171875 658.75796875 -345.3359375 659.1484375 C-341.58241947 660.23605819 -337.81677939 661.16941991 -334 662 C-333.32807617 662.15098145 -332.65615234 662.30196289 -331.96386719 662.45751953 C-305.16564701 668.15782933 -273.55002738 667.3004635 -247 661 C-245.97068359 660.75862305 -244.94136719 660.51724609 -243.88085938 660.26855469 C-205.28444625 650.9307128 -171.52060414 631.37057978 -143 604 C-142.175 603.21625 -141.35 602.4325 -140.5 601.625 C-126.88952077 588.39258963 -115.49992429 572.38758317 -106 556 C-105.58782227 555.30374512 -105.17564453 554.60749023 -104.75097656 553.89013672 C-82.7768478 516.59511248 -71.99796991 473.83880503 -68 431 C-67.92942383 430.25057129 -67.85884766 429.50114258 -67.78613281 428.72900391 C-67.51533999 425.71661281 -67.30482975 422.71855111 -67.19892883 419.69558716 C-67 416 -67 416 -66.4337616 412.42208862 C-65.75018008 406.03632086 -65.73982997 401.22331354 -69.65322876 395.89923096 C-73.54210979 391.27891524 -77.89088103 387.12767357 -82.23828125 382.9453125 C-83.87716631 381.31094543 -85.5125267 379.6730375 -87.1446228 378.03189087 C-91.56805651 373.60388028 -96.0389482 369.22682124 -100.52022934 364.85746765 C-105.2013842 360.27657068 -109.83704367 355.65009152 -114.4777832 351.02832031 C-122.26598188 343.2814817 -130.08413633 335.5658178 -137.92285156 327.87011719 C-145.99310734 319.94694781 -154.0462184 312.00698113 -162.07714844 304.04394531 C-162.5729897 303.55230762 -163.06883097 303.06066993 -163.57969773 302.55413413 C-166.06732844 300.08738551 -168.55462881 297.62030411 -171.04176521 295.1530571 C-191.64352985 274.71689582 -212.30324964 254.33994974 -233 234 C-232.06235375 232.89762382 -231.12347489 231.796296 -230.18409538 230.69539642 C-229.66139309 230.08197938 -229.13869079 229.46856235 -228.60014904 228.83655691 C-226.14576046 226.01955411 -223.55292164 223.34890264 -220.93798828 220.68164062 C-220.0781282 219.79987656 -220.0781282 219.79987656 -219.20089722 218.90029907 C-213.97280423 213.54734435 -208.71677301 208.22166076 -203.45262337 202.90418243 C-199.92475254 199.3403988 -196.40637443 195.76824239 -192.90869141 192.17480469 C-189.51101484 188.68444077 -186.09187122 185.21653815 -182.65630722 181.76347351 C-181.35437064 180.44744279 -180.06022391 179.12365744 -178.77420425 177.79206848 C-176.97686371 175.9341227 -175.15328273 174.10640571 -173.32080078 172.28320312 C-172.79794495 171.72956085 -172.27508911 171.17591858 -171.73638916 170.60549927 C-168.78551376 167.73501546 -167.33685211 167.00074198 -163.17608643 166.99157715 C-161.7738017 167.28197773 -160.38086296 167.62058935 -159 168 C-158.29202963 168.19446968 -157.58405926 168.38893936 -156.85463524 168.58930206 C-154.50374594 169.29155182 -152.18466274 170.06159192 -149.86181641 170.8515625 C-148.98603943 171.14270935 -148.11026245 171.4338562 -147.20794678 171.73382568 C-144.33669757 172.69037388 -141.46914807 173.65752994 -138.6015625 174.625 C-136.60017028 175.29439537 -134.59856989 175.96316867 -132.59677124 176.63134766 C-128.41438909 178.02902567 -124.23365401 179.43148351 -120.05419922 180.83789062 C-114.68933433 182.64319339 -109.32189285 184.44067402 -103.95339394 186.23513794 C-98.8353307 187.94607986 -93.71832052 189.66015919 -88.6015625 191.375 C-87.62245533 191.70300598 -86.64334816 192.03101196 -85.63457108 192.36895752 C-82.87641204 193.29375277 -80.11898538 194.22069529 -77.36181641 195.1484375 C-76.54000885 195.42379333 -75.71820129 195.69914917 -74.87149048 195.98284912 C-69.2302797 197.88486015 -69.2302797 197.88486015 -67 199 C-67.32983887 198.04077637 -67.65967773 197.08155273 -67.99951172 196.09326172 C-72.35946821 183.40450367 -76.68838361 170.70526117 -81 158 C-81.39509766 156.83593628 -81.79019531 155.67187256 -82.19726562 154.47253418 C-84.6930124 147.11408586 -87.17812816 139.75215132 -89.6519165 132.3862915 C-90.46678332 129.96364965 -91.28428579 127.5418927 -92.10443115 125.12103271 C-93.26174032 121.70285984 -94.40937474 118.28158304 -95.5546875 114.859375 C-96.07869141 113.32130692 -96.07869141 113.32130692 -96.61328125 111.75216675 C-97.08677002 110.32748581 -97.08677002 110.32748581 -97.56982422 108.87402344 C-97.84736542 108.04948669 -98.12490662 107.22494995 -98.41085815 106.37542725 C-99.07416276 103.70097481 -99.28474363 101.74975852 -99 99 C-97.45388031 96.83864117 -97.45388031 96.83864117 -95.24157715 94.64030457 C-94.4085759 93.80042999 -93.57557465 92.96055542 -92.71733093 92.0952301 C-91.79160782 91.18748337 -90.8658847 90.27973663 -89.91210938 89.34448242 C-88.93567852 88.36946203 -87.96034754 87.39333911 -86.98603821 86.41619873 C-84.3381121 83.766837 -81.67504389 81.13318252 -79.00901985 78.50205016 C-76.22540829 75.7496776 -73.45593322 72.98315584 -70.68493652 70.21809387 C-65.43562127 64.98432425 -60.17368988 59.76343123 -54.90712309 54.54702789 C-48.9119097 48.60768544 -42.93087389 42.65415302 -36.95099545 36.69937742 C-24.64972072 24.45037716 -12.33073182 12.21934465 0 0 Z " fill="url(#whiteToRedGradient)" transform="translate(799,133)"/>
</svg>
